# xmcd CD database file
#
# Track frame offsets:
#	150
#	15113
#	35750
#
# Disc length: 674 seconds
#
# Revision: 0
# Processed by: cddbd v1.5PL3 Copyright (c) Steve Scherf et al.
# Submitted via: CDex 1.51
#
DISCID=1602a003
DTITLE=タオルズ - 君に幸あれ
DYEAR=2003
DGENRE=Pop
TTITLE0=君に幸あれ
TTITLE1=春恋歌
TTITLE2=君に幸あれ（カラオケ）
EXTD=YEAR: 2003
EXTT0=
EXTT1=
EXTT2=
PLAYORDER=
